<svg width="80" height="80" viewBox="0 0 80 80" fill="none" xmlns="http://www.w3.org/2000/svg">
<rect width="80" height="80" fill="#F5F7FF"/>
<path d="M17.8 44.2V40.92H25.36C26.4 40.92 27.32 40.7067 28.12 40.28C28.9467 39.8533 29.5867 39.2533 30.04 38.48C30.52 37.7067 30.76 36.7867 30.76 35.72C30.76 34.6533 30.52 33.7333 30.04 32.96C29.5867 32.1867 28.9467 31.5867 28.12 31.16C27.32 30.7333 26.4 30.52 25.36 30.52H17.8V27.24H25.6C27.3067 27.24 28.8267 27.5867 30.16 28.28C31.52 28.9733 32.5867 29.96 33.36 31.24C34.16 32.4933 34.56 33.9867 34.56 35.72C34.56 37.4267 34.16 38.92 33.36 40.2C32.5867 41.4533 31.52 42.44 30.16 43.16C28.8267 43.8533 27.3067 44.2 25.6 44.2H17.8ZM15.28 55V27.24H19.04V55H15.28ZM52.0978 55.4C50.1511 55.4 48.3245 55.04 46.6178 54.32C44.9378 53.5733 43.4578 52.5467 42.1778 51.24C40.9245 49.9333 39.9378 48.4133 39.2178 46.68C38.4978 44.9467 38.1378 43.08 38.1378 41.08C38.1378 39.08 38.4978 37.2267 39.2178 35.52C39.9378 33.7867 40.9378 32.2667 42.2178 30.96C43.4978 29.6533 44.9911 28.64 46.6978 27.92C48.4311 27.2 50.3111 26.84 52.3378 26.84C54.5511 26.84 56.5911 27.2667 58.4578 28.12C60.3245 28.9733 61.8845 30.2 63.1378 31.8L60.5378 34.4C59.6578 33.12 58.4978 32.1467 57.0578 31.48C55.6178 30.7867 54.0445 30.44 52.3378 30.44C50.3111 30.44 48.5111 30.8933 46.9378 31.8C45.3911 32.7067 44.1778 33.96 43.2978 35.56C42.4445 37.16 42.0178 39 42.0178 41.08C42.0178 43.1867 42.4578 45.04 43.3378 46.64C44.2178 48.24 45.4045 49.4933 46.8978 50.4C48.3911 51.3067 50.0978 51.76 52.0178 51.76C53.9645 51.76 55.6445 51.3867 57.0578 50.64C58.4978 49.8933 59.6045 48.8 60.3778 47.36C61.1511 45.8933 61.5378 44.1067 61.5378 42L63.8178 43.64H51.8178V40.2H65.4178V40.76C65.4178 43.9867 64.8445 46.6933 63.6978 48.88C62.5778 51.04 61.0045 52.6667 58.9778 53.76C56.9778 54.8533 54.6845 55.4 52.0978 55.4Z" fill="#33365C"/>
</svg>
