<svg width="66" height="90" viewBox="0 0 66 90" fill="none" xmlns="http://www.w3.org/2000/svg">
<path d="M12.7998 56.576V42.368H33.6638C36.3945 42.368 38.8691 41.8133 41.0878 40.704C43.3065 39.5947 45.0558 38.016 46.3358 35.968C47.6158 33.8347 48.2558 31.2747 48.2558 28.288C48.2558 25.3867 47.6158 22.8693 46.3358 20.736C45.0558 18.6027 43.3065 16.9813 41.0878 15.872C38.8691 14.7627 36.3945 14.208 33.6638 14.208H12.7998V0H35.4558C41.1731 0 46.2931 1.152 50.8158 3.45599C55.4238 5.75999 59.0505 9.04533 61.6958 13.312C64.3411 17.4933 65.6638 22.4853 65.6638 28.288C65.6638 34.0907 64.3411 39.1253 61.6958 43.392C59.0505 47.5733 55.4238 50.816 50.8158 53.12C46.2931 55.424 41.1731 56.576 35.4558 56.576H12.7998Z" fill="#999999"/>
<path d="M0 89.984V0H17.408V74L0 89.984Z" fill="#484848"/>
</svg>
